<svg aria-hidden="true" style="position:absolute;width:0;height:0" xmlns="http://www.w3.org/2000/svg" overflow="hidden">
  <defs>
    <symbol id="icon-antenna-1" viewBox="0 0 32 32">
      <path fill="var(--color1, #212121)" d="M30.777 22.101l-8.445-8.506.937-4.616c.225.09.485.144.758.146h.033a2.159 2.159 0 10-2.029-1.42l-.005-.015-4.961.606L8.973.162a.53.53 0 00-.377-.16.54.54 0 00-.374.155L6.71 1.661a.535.535 0 000 .754l.814.825c-1.143 2.063-1.816 4.523-1.816 7.14 0 4.106 1.656 7.825 4.337 10.527l-.001-.001a.49.49 0 00.146.097 2.986 2.986 0 00-.052.546v6.189H3.737a2.67 2.67 0 00-2.668 2.667v1.067c0 .295.239.534.534.534H26.14a.534.534 0 00.533-.534v-1.067a2.67 2.67 0 00-2.667-2.667h-6.401v-2.742a14.79 14.79 0 0010.167-1.502l-.077.039.818.823a.534.534 0 00.376.16.54.54 0 00.374-.155l1.512-1.504a.535.535 0 000-.754zM23.283 6.234a1.067 1.067 0 11.752 1.824h-.004a1.067 1.067 0 01-.747-1.823h-.002zm-1.256 3.504l-.598 2.946-1.175-1.183 1.774-1.763zm-.606-.902l-1.92 1.909-1.486-1.494 3.406-.416zm2.586 19.968a1.6 1.6 0 011.6 1.6v.534H2.137v-.534a1.6 1.6 0 011.6-1.6h20.269zM16.54 26.67v1.067h-5.334V26.67h5.334zm-5.334-1.066V21.55c0-1.294 1.197-2.347 2.667-2.347s2.667 1.053 2.667 2.347v4.054h-5.334zm6.401-1.697v-2.358c0-1.882-1.675-3.413-3.734-3.413h-.058c-1.353 0-2.54.707-3.214 1.771l-.009.016a13.82 13.82 0 01-3.812-9.551c0-2.314.567-4.497 1.569-6.415l-.036.077 18.605 18.711c-1.823.947-3.98 1.502-6.267 1.502a13.9 13.9 0 01-3.136-.357l.093.018zm11.29-.684L7.837 2.039l.754-.752 7.936 7.981c.004 0 .006.007.01.01l13.116 13.193-.757.752z"/>
      <path fill="var(--color2, #2196f3)" d="M13.878 20.269h-.007a1.6 1.6 0 00-.002 3.2h.007a1.6 1.6 0 00.002-3.2zm.373 1.979a.534.534 0 11-.378-.913.533.533 0 01.374.911h.005z"/>
    </symbol>
    <symbol id="icon-astronaut-1" viewBox="0 0 32 32">
      <path fill="var(--color2, #2196f3)" d="M31.978 4.524a.535.535 0 00-.427-.362h-.003l-1.911-.278-.855-1.731c-.179-.365-.777-.365-.956 0l-.855 1.731-1.911.278a.534.534 0 00-.296.91l1.384 1.348-.326 1.903a.532.532 0 00.774.562l1.709-.899 1.709.899a.534.534 0 00.774-.565v.003l-.326-1.903 1.383-1.348a.535.535 0 00.134-.55l.001.004zm-2.463 1.328a.53.53 0 00-.153.472l.191 1.114-1-.526a.525.525 0 00-.501.001l.003-.001-1 .526.191-1.114a.534.534 0 00-.152-.473l-.811-.789 1.119-.163a.532.532 0 00.402-.292l.5-1.013.5 1.013a.532.532 0 00.402.292l1.119.162-.809.79zm-3.378 14.673H25.07v1.067h1.067v-1.067zm0 2.134H25.07v1.066h1.067v-1.066zm1.067-1.067h-1.067v1.067h1.067v-1.067zm-2.134 0h-1.067v1.067h1.067v-1.067zm-2.667 4.801h-1.067v1.067h1.067v-1.067zm0 2.133h-1.067v1.067h1.067v-1.067zm1.067-1.066h-1.067v1.067h1.067V27.46zm-2.134 0h-1.067v1.067h1.067V27.46zm-5.334-3.201h-1.067v1.067h1.067v-1.067zm0 2.134h-1.067v1.067h1.067v-1.067zm1.067-1.067h-1.067v1.067h1.067v-1.067zm-2.133 0h-1.067v1.067h1.067v-1.067zM5.867 6.123H4.8V7.19h1.067V6.123zm0 2.134H4.8v1.067h1.067V8.258zM6.934 7.19H5.867v1.067h1.067V7.19zm-2.133 0H3.734v1.067h1.067V7.19z"/>
      <path fill="var(--color1, #212121)" d="M24.718 14.161a1.776 1.776 0 00-1.179-.703l-.009-.001a1.769 1.769 0 00-1.344.355l.004-.003-1.253.96-1.898 1.417-1.358-.541c2.421-1.086 4.114-3.509 4.114-6.321 0-3.824-3.123-6.934-6.962-6.934S7.871 5.501 7.871 9.324c0 1.386.415 2.675 1.12 3.759l-2.769-.024c-.009 0-.016.005-.023.005a.511.511 0 00-.159.033l.004-.001c-.013.005-.026.007-.038.013-.006.003-.013.003-.019.006l-3.233 1.596-.001.001-1.893.91a.5.5 0 00-.065.036l.001-.001a1.782 1.782 0 00-.594 2.306l-.005-.01c.22.424.593.742 1.044.885l.013.003a1.772 1.772 0 001.388-.133l-.009.005 1.388-.738 2.264-1.17 1.357-.008-5.443 5.416-.001.001-1.339 1.333a1.645 1.645 0 00-.491 1.174v.005c.002.92.748 1.664 1.667 1.664h.002a1.67 1.67 0 001.181-.486l1.314-1.309 1.741-1.3.901.897-3.102 3.089a1.645 1.645 0 00-.491 1.174v.004a1.662 1.662 0 001.667 1.664h.003c.428 0 .855-.162 1.181-.485l4.489-4.473c.007-.006.016-.009.022-.016l5.166-5.659 3.472.494a.474.474 0 00.262-.032c.017-.006.032-.015.049-.023.019-.01.039-.015.058-.027l3.214-2.133c.012-.008.018-.021.029-.03.013-.01.029-.014.041-.026l1.271-1.191c.348-.326.564-.787.564-1.3 0-.4-.132-.769-.355-1.067l.003.005zM2.131 17.772a.706.706 0 01-.564.05l.005.001a.717.717 0 01-.214-1.258l.002-.001 1.314-.632.316.924.133.389-.992.527zm3.497-1.827l-1.549.8-.255-.747-.184-.537 2.027-1.001-.04 1.484zM20.73 9.323c0 .919-.219 1.785-.599 2.56l-4.182-1.9a1.865 1.865 0 00-.782-1.384l-.006-.004 1.464-4.861c2.377.756 4.105 2.975 4.105 5.588zm-11.791 0c0-3.235 2.644-5.868 5.895-5.868.253 0 .5.022.745.053l-1.432 4.754c-.019 0-.037-.006-.057-.006h-.001a1.872 1.872 0 00-1.872 1.867 1.872 1.872 0 001.872 1.867h.001c.695 0 1.295-.383 1.618-.945l3.863 1.755a5.892 5.892 0 01-4.738 2.39c-3.251 0-5.895-2.632-5.895-5.867zm5.958.8c0 .441-.362.8-.806.8h-.001a.804.804 0 01-.804-.8c0-.441.361-.8.806-.8s.806.359.806.8zM2.465 25.149a.606.606 0 01-.855.001.591.591 0 010-.844l.962-.959.852.848-.959.955zm3.214 3.734a.606.606 0 01-.855.001.591.591 0 010-.844l.963-.959.852.848-.96.956zm3.482-3.469l-.001.001-1.765 1.76-.852-.848 1.765-1.757a.527.527 0 00.09-.136c.007-.014.02-.026.026-.04.016-.041.019-.085.026-.128.003-.025.014-.048.014-.073 0-.035-.013-.07-.02-.105-.006-.032-.006-.064-.019-.096a.536.536 0 00-.092-.138c-.01-.012-.014-.027-.025-.038h-.001l-.001-.002-1.607-1.6c-.017-.017-.039-.024-.058-.038a.563.563 0 00-.084-.057l-.003-.001a.453.453 0 00-.09-.031l-.003-.001a.502.502 0 00-.101-.02h-.002l-.023-.001a.603.603 0 00-.075.005h.003c-.036.005-.069.009-.104.021a.502.502 0 00-.096.046l.002-.001c-.02.011-.043.015-.061.029L4.23 23.489l-.901-.898 2.399-2.387 4.361 4.29-.928.919zm6.82-7.017c-.016-.002-.03.004-.046.003l-.027-.001a.562.562 0 00-.092.008h.003a.484.484 0 00-.187.07l.002-.001a.528.528 0 00-.083.062c-.013.011-.028.016-.04.029l-4.698 5.146-4.329-4.257 2.833-2.819a.535.535 0 00-.378-.911h-.002l-2.219.013.028-1.608 3.104.027a6.929 6.929 0 004.979 2.101h.003c.438 0 .864-.046 1.28-.123.04.032.08.064.129.085l2.41.96.152.759.178.885-3.003-.427zm4.042.178l-.313-1.558 1.447-1.08.946 1.257-2.08 1.381zm3.753-2.832l-.838.785-.931-1.237.831-.637a.735.735 0 01.543-.143.718.718 0 01.621.71.71.71 0 01-.226.521z"/>
      <path fill="var(--color1, #212121)" d="M13.604 18.547l-2.143-2.134a.53.53 0 00-.752 0l-2.143 2.134a.533.533 0 000 .756l2.142 2.134a.533.533 0 00.754 0l2.143-2.134a.532.532 0 000-.756zm-2.519 1.759l-1.387-1.381 1.387-1.381 1.388 1.381-1.388 1.381zm6.082-15.235l-.258 1.036c.071.018 1.738.452 1.738 2.149h1.067c0-2.017-1.666-2.965-2.547-3.185zm2.547 4.252h-1.067v1.067h1.067V9.323z"/>
    </symbol>
    <symbol id="icon-clock-1" viewBox="0 0 32 32">
      <path fill="var(--color1, #212121)" d="M31.301 15.303C31.3 6.85 24.445-.002 15.991 0S.686 6.856.688 15.31C.69 22.099 5.111 27.854 11.23 29.857l.108.031a.667.667 0 00.529-.065.636.636 0 00.283-.357l3.865-12.252a1.914 1.914 0 10-.851-3.63l.011-.005-5.107-5.107a.638.638 0 00-.902.902l5.104 5.11a1.873 1.873 0 00.533 2.307l.004.003-3.683 11.675C3.845 25.788.118 17.713 2.799 10.435S13.554-.571 20.833 2.111c7.279 2.681 11.006 10.755 8.324 18.034-1.345 3.582-4.004 6.407-7.375 7.939l-.088.036-.398-1.875a.639.639 0 00-1.05-.343l.001-.001-3.837 3.426a.637.637 0 00.227 1.083l.005.001 4.899 1.564a.637.637 0 00.818-.744l.001.004-.391-1.839c5.528-2.375 9.33-7.773 9.33-14.059v-.034.002zm-15.307-.637a.638.638 0 010 1.276.638.638 0 010-1.276zm2.101 14.866l2.185-1.949.603 2.841-2.788-.892z"/>
      <path fill="var(--color2, #2196f3)" d="M15.357 3.185v1.276a.638.638 0 001.276 0V3.185a.638.638 0 00-1.276 0zM3.877 14.666a.638.638 0 000 1.276h1.276a.638.638 0 000-1.276H3.877zm24.235 1.275a.638.638 0 000-1.276h-1.276a.638.638 0 000 1.276h1.276z"/>
    </symbol>
    <symbol id="icon-diagram-1" viewBox="0 0 32 32">
      <path fill="var(--color2, #2196f3)" d="M14.928 14.967h1.066v4.798h-1.066v-4.798zm4.265 2.132h1.066v2.666h-1.066v-2.666zm-8.531 1.6h1.066v1.066h-1.066v-1.066zm-3.198-.534H8.53v1.599H7.464v-1.599z"/>
      <path fill="var(--color1, #212121)" d="M1.599 28.295h25.59a1.6 1.6 0 001.599-1.599v-2.132a1.6 1.6 0 00-1.599-1.599h-.533V9.669L29.684 6.8a1.608 1.608 0 10-.742-.752l-.004-.01-2.281 2.163v-1.23a1.6 1.6 0 00-1.599-1.599H3.733a1.6 1.6 0 00-1.599 1.599v15.994h-.533a1.6 1.6 0 00-1.599 1.599v2.132a1.6 1.6 0 001.599 1.599zM30.388 4.837a.533.533 0 010 1.066.533.533 0 010-1.066zM3.199 6.97c0-.294.239-.533.533-.533h21.325c.294 0 .533.239.533.533v2.239l-1.066 1.013V8.037a.534.534 0 00-.534-.534H4.798a.534.534 0 00-.534.533v13.328c0 .294.239.533.534.533H23.99a.534.534 0 00.534-.533v-9.676l1.066-1.01v12.285H3.198V6.97zm4.798 6.93h-.005a1.6 1.6 0 101.112 2.748l1.853.93a.533.533 0 00.636-.123l3.939-4.432 3.873 2.902a.534.534 0 00.686-.039l3.366-3.188v8.132H5.331V8.568h18.126v2.661l-3.772 3.572-3.905-2.928a.534.534 0 00-.718.071v.001l-3.993 4.493-1.493-.747c.011-.064.017-.128.02-.193a1.6 1.6 0 00-1.599-1.599zm.533 1.6a.533.533 0 01-1.066 0 .533.533 0 011.066 0zm3.199 8.53h5.331v.533a.533.533 0 01-.533.533h-4.265a.533.533 0 01-.533-.533v-.533zm-10.662.533c0-.294.238-.533.533-.533h9.063v.533a1.6 1.6 0 001.599 1.599h4.265a1.6 1.6 0 001.599-1.599v-.533h9.063c.294 0 .533.239.533.533v2.132a.533.533 0 01-.533.533H1.599a.533.533 0 01-.533-.533v-2.132z"/>
    </symbol>
    <symbol id="icon-envelope" viewBox="0 0 43 32">
      <path d="M38.679-.004H4.001A4.006 4.006 0 000 3.997v24.008a4.006 4.006 0 004.001 4.001h34.678a4.006 4.006 0 004.001-4.001V3.997a4.006 4.006 0 00-4.001-4.001zm0 2.668c.181 0 .355.037.512.104L21.34 18.24 3.489 2.768c.151-.065.327-.104.512-.104h34.678zm0 26.675H4.001a1.334 1.334 0 01-1.334-1.334V5.584L20.465 21.01a1.333 1.333 0 001.752-.001l-.002.001L40.013 5.584v22.421c0 .737-.597 1.334-1.334 1.334z"/>
    </symbol>
    <symbol id="icon-facebook-1" viewBox="0 0 32 32">
      <path d="M21.338 5.315h2.925V.225a36.528 36.528 0 00-4.109-.224h-.157.008c-4.215 0-7.103 2.651-7.103 7.524v4.482H8.253v5.691h4.649v14.319h5.702V17.7h4.461l.709-5.691h-5.172V8.086c0-1.644.443-2.769 2.736-2.769z"/>
    </symbol>
    <symbol id="icon-instagram-2" viewBox="0 0 32 32">
      <path d="M31.983 9.412c-.074-1.702-.349-2.87-.743-3.883a7.836 7.836 0 00-1.851-2.838l-.001-.001A7.882 7.882 0 0026.609.863l-.054-.018c-1.02-.394-2.182-.668-3.883-.743C20.959.02 20.415.001 16.067.001c-4.346 0-4.89.019-6.598.094-1.7.074-2.87.349-3.882.743a7.831 7.831 0 00-2.84 1.851l-.001.001A7.893 7.893 0 00.92 5.469l-.018.054C.507 6.543.233 7.705.158 9.406c-.082 1.713-.101 2.257-.101 6.605 0 4.346.019 4.89.094 6.598.075 1.702.351 2.87.744 3.883a7.95 7.95 0 001.849 2.839l.001.001c.8.813 1.77 1.444 2.833 1.844 1.02.395 2.183.671 3.883.744 1.708.075 2.252.094 6.598.094 4.348 0 4.892-.019 6.598-.094 1.702-.074 2.87-.349 3.883-.743a8.237 8.237 0 004.666-4.63l.019-.055c.394-1.02.669-2.183.744-3.883.075-1.708.093-2.252.093-6.598s-.006-4.89-.08-6.598zm-2.881 13.072c-.07 1.564-.333 2.408-.551 2.971a5.347 5.347 0 01-3.005 3.026l-.036.013c-.56.219-1.412.482-2.969.551-1.689.075-2.195.094-6.467.094-4.271 0-4.785-.019-6.467-.094-1.564-.069-2.408-.331-2.971-.551a4.947 4.947 0 01-1.837-1.193l-.001-.001a4.987 4.987 0 01-1.184-1.803l-.011-.034c-.218-.563-.48-1.413-.549-2.971-.075-1.689-.094-2.196-.094-6.467 0-4.272.019-4.786.094-6.467.069-1.564.331-2.408.549-2.971a4.883 4.883 0 011.199-1.838l.002-.002a4.97 4.97 0 011.807-1.183l.034-.011c.56-.219 1.412-.48 2.969-.551 1.689-.074 2.196-.093 6.467-.093 4.277 0 4.785.019 6.467.093 1.564.069 2.408.331 2.971.551a4.934 4.934 0 011.838 1.194c.531.52.938 1.145 1.196 1.841.218.56.48 1.412.549 2.969.075 1.689.094 2.195.094 6.467 0 4.271-.019 4.77-.094 6.461z"/>
      <path d="M16.067 7.786a8.227 8.227 0 00-8.223 8.225v.002a8.226 8.226 0 108.226-8.226h-.002zm0 13.559a5.336 5.336 0 010-10.67h.001a5.336 5.336 0 110 10.672zm10.47-13.884a1.92 1.92 0 11-3.842 0 1.92 1.92 0 113.842 0z"/>
    </symbol>
    <symbol id="icon-linkedin-1" viewBox="0 0 32 32">
      <path d="M32.007 32.015h.008V20.272c0-5.744-1.237-10.168-7.951-10.168-3.229 0-5.395 1.77-6.28 3.451h-.093V10.64h-6.368v21.373h6.63V21.43c0-2.787.528-5.483 3.98-5.483 3.4 0 3.45 3.181 3.45 5.66v10.407h6.624zM.528 10.64h6.638v21.375H.528V10.64zM3.845 0A3.844 3.844 0 000 3.845c0 2.121 1.722 3.88 3.845 3.88 2.121 0 3.843-1.758 3.843-3.88S5.967.002 3.845 0z"/>
    </symbol>
    <symbol id="icon-logo-1" viewBox="0 0 29 32">
      <path d="M3.843 0L8.52 4.428h13.046v12.351l4.677 4.428V.001h-22.4z"/>
      <path d="M.003 4.241v20.6h21.76v-8.188L8.658 4.246.003 4.241zm17.615 17.587H3.446V7.973h1.002V20.89h13.17v.938zM6.269 28.662l.524-1.078h.438l-.764 1.437v.838H6.07v-.838l-.764-1.437h.439l.524 1.078zm2.247.667h-.881l-.184.53H7.04l.859-2.275h.355l.861 2.275h-.413l-.186-.53zm-.77-.319h.659l-.33-.944-.33.944zm2.328.234c0-.105.029-.202.086-.289.058-.089.17-.193.339-.314a1.498 1.498 0 01-.182-.276l-.004-.008a.568.568 0 01-.052-.226c0-.179.054-.319.163-.422s.254-.156.437-.156a.57.57 0 01.406.147c.106.097.16.218.16.361v.003a.497.497 0 01-.074.262l.001-.002a.858.858 0 01-.233.236l-.003.002-.155.113.44.518a.914.914 0 00.095-.417h.33c0 .28-.065.509-.196.689l.334.396h-.44l-.128-.152a.93.93 0 01-.558.183h-.025.001c-.225 0-.405-.06-.54-.179a.597.597 0 01-.202-.447v-.021.001zm.753.343a.58.58 0 00.359-.128l-.497-.586-.049.035c-.125.095-.188.203-.188.325 0 .105.034.191.102.256a.375.375 0 00.254.099h.019-.001zm-.21-1.466c0 .088.054.197.161.33l.173-.118.049-.039a.283.283 0 00.097-.212v-.009-.002a.2.2 0 00-.067-.149.233.233 0 00-.162-.064h-.019a.224.224 0 00-.167.075.276.276 0 00-.066.179v.01zm4.134.997c-.023.243-.113.432-.269.568s-.364.204-.623.204a.902.902 0 01-.48-.128.86.86 0 01-.317-.362l-.002-.005a1.302 1.302 0 01-.117-.544v-.22c0-.214.038-.403.114-.567a.871.871 0 01.326-.378.913.913 0 01.494-.133c.251 0 .453.068.606.205s.243.329.268.578h-.394c-.019-.163-.067-.281-.144-.353-.076-.073-.188-.109-.336-.109a.464.464 0 00-.397.189c-.092.125-.138.309-.141.552v.202c0 .246.044.433.132.563s.218.194.387.194c.155 0 .272-.035.35-.105s.128-.186.148-.348h.394zm2.17-.338c0 .223-.038.419-.115.588a.88.88 0 01-.332.388.905.905 0 01-.494.134.92.92 0 01-.493-.134.897.897 0 01-.332-.38l-.002-.006a1.335 1.335 0 01-.119-.555v-.023.001-.128c0-.222.038-.418.117-.588s.19-.3.333-.389c.144-.091.308-.136.493-.136s.35.045.493.134c.143.089.255.217.333.384s.118.362.118.584v.126zm-.396-.118c0-.252-.048-.445-.143-.58a.465.465 0 00-.384-.202l-.022.001h.001-.016a.468.468 0 00-.384.2l-.001.002c-.096.133-.145.323-.147.567v.131c0 .25.049.444.146.58s.233.205.406.205c.175 0 .31-.067.403-.2.095-.133.142-.328.142-.584v-.118z"/>
    </symbol>
    <symbol id="icon-logo-2" viewBox="0 0 25 32">
      <path d="M10.449 1.806h.084c.156 0 .324.015.49.03a13.96 13.96 0 012.18.329V.403c-.652-.172-1.42-.3-2.207-.357l-.042-.002c-.254-.02-.571-.035-.889-.043H9.781c-1.523.006-3.04.201-4.515.582A18.29 18.29 0 00.475 2.532V20.01a18.913 18.913 0 014.432-1.75l.135-.029a19.11 19.11 0 013.78-.586l.053-.002h.052c.217-.011.433-.017.655-.018v-1.791c-1.78.024-3.494.264-5.13.695l.147-.033c-.603.157-1.185.326-1.731.513l-.623.212V3.593l.266-.128c1.89-.918 4.097-1.513 6.426-1.649l.047-.002.028-.001.029.001H9.04c.248-.012.497-.018.742-.018h.28c.129.003.258.006.388.014z"/>
      <path d="M14.84 3.652h-.016c-.915 0-1.812-.077-2.684-.225l.094.013c-.277-.047-.55-.103-.814-.164v17.278c1.12.277 2.271.412 3.425.404a18.446 18.446 0 004.644-.61l-.128.029a18.285 18.285 0 004.877-1.995l-.085.047V1.263a19.057 19.057 0 01-4.429 1.751l-.136.03a19.346 19.346 0 01-4.747.609zm6.908.298l.623-.209v13.632l-.267.129c-.903.443-1.963.834-3.065 1.118l-.119.026c-1.331.345-2.7.521-4.074.527-.411 0-.819-.017-1.214-.052l-.427-.038V5.064l.497.033c.361.023.735.034 1.141.034a21.106 21.106 0 005.174-.663 28.128 28.128 0 001.731-.518zM1.685 25.981a.916.916 0 00-.661-.281l-.034.001h.002-.014c-.139 0-.272.028-.393.078l.007-.003a.904.904 0 00-.51.512l-.002.006a1.003 1.003 0 00-.071.387v2.335c-.006.164.026.328.092.479a.83.83 0 00.554.479c.114.031.231.048.349.048a.986.986 0 00.968-.983v-.261h-.611V29c0 .07-.013.136-.037.198l.001-.004a.38.38 0 01-.089.132.426.426 0 01-.255.089.308.308 0 01-.286-.125l-.001-.001A.548.548 0 01.612 29l.001-.024v.001-2.178a.74.74 0 01.075-.349.31.31 0 01.262-.143l.038.002H.987h.012c.107 0 .201.052.261.131l.001.001a.493.493 0 01.101.3v.014-.001.202h.604v-.238-.011c0-.143-.027-.28-.077-.406l.003.007a.955.955 0 00-.205-.329zm3.626-.026a1.051 1.051 0 00-1.058-.191.964.964 0 00-.557.512l-.002.006a1.08 1.08 0 00-.089.452v2.239a1.08 1.08 0 00.089.459.888.888 0 00.236.313.964.964 0 00.322.197 1.049 1.049 0 001.059-.198l-.001.001a.948.948 0 00.23-.313c.063-.144.093-.301.089-.459v-2.24-.02c0-.156-.033-.305-.092-.439l.003.007a1.016 1.016 0 00-.23-.327zm-.285 3.018l.002.035a.398.398 0 01-.123.289.446.446 0 01-.575 0l.001.001a.4.4 0 01-.121-.326v.002-2.24l-.001-.034c0-.114.047-.216.123-.289a.446.446 0 01.575 0l-.001-.001a.398.398 0 01.121.326v-.002 2.24zm5.048 1.001v-4.241h-.587l-.771 2.245h-.01l-.777-2.244h-.58v4.239h.606v-2.579h.011l.593 1.823h.302l.598-1.823h.01v2.579h.606zm3.441-3.943a.834.834 0 00-.342-.232 1.31 1.31 0 00-.416-.066h-.024.001-.9v4.241h.604v-1.656h.311c.189.009.376-.031.545-.116a.88.88 0 00.329-.32l.002-.004a1 1 0 00.138-.369c.021-.133.033-.287.033-.444v-.04.002a2.426 2.426 0 00-.059-.606.906.906 0 00-.223-.39zm-.311 1.293a.538.538 0 01-.057.224l.001-.003a.342.342 0 01-.154.147l-.002.001a.617.617 0 01-.254.054l-.033-.001h.002-.276v-1.441h.311l.029-.001c.088 0 .172.02.247.055l-.004-.002a.35.35 0 01.141.154l.001.002a.62.62 0 01.053.236v.282c0 .098.006.201 0 .291h-.006zm3.173-1.591h-.495l-.934 4.241h.604l.177-.911h.823l.178.911h.604l-.958-4.241zm-.558 2.752l.297-1.537h.011l.295 1.537h-.604zm4.461-.197h-.011l-.912-2.554h-.581v4.241h.604v-2.55h.012l.923 2.549h.568v-4.239h-.604v2.554zm3.692-2.555l-.486 1.686h-.012l-.486-1.686h-.639l.83 2.448v1.792h.604v-1.792l.83-2.448h-.64zM0 31.171h.291v.817h.198v-.817h.289v-.167H0v.168zm2.448-.168l-.382.985h.21l.081-.224h.392l.084.224h.215l-.391-.985h-.21zm-.031.595l.134-.365.134.365h-.268zm2.45.027h.228v.127a.373.373 0 01-.234.083h-.014a.25.25 0 01-.195-.094.406.406 0 01-.073-.234l.001-.023v.001c0-.219.095-.329.283-.329l.021-.001c.097 0 .178.067.201.157v.001l.194-.038c-.042-.192-.18-.289-.417-.289h-.013a.492.492 0 00-.331.127.48.48 0 00-.141.38v-.002.023c0 .132.048.254.127.347l-.001-.001c.087.09.209.146.343.146l.032-.001h-.001.016c.155 0 .296-.06.402-.157v-.388h-.427v.166zm2.472-.622H7.14v.985h.689v-.167h-.49v-.817zm2.089 0h-.199v.985h.199v-.985zm2.043.657l-.404-.657h-.193v.985h.185v-.643l.396.643h.198v-.985h-.182v.658zm1.846-.106h.491v-.167h-.491v-.215h.527v-.168h-.727v.985h.747v-.167h-.548v-.267zm4.478-.163h-.388v-.388h-.197v.984h.197v-.431h.388v.431h.198v-.985h-.198v.388zm1.858.163h.492v-.167h-.492v-.215h.529v-.168h-.726v.985h.746v-.167h-.548v-.267zm2.519 0c.171-.027.259-.118.259-.274a.23.23 0 00-.096-.219h-.001a.555.555 0 00-.25-.059l-.04.001h.002-.417v.984h.198v-.412h.055c.039 0 .076.008.109.023l-.002-.001a.201.201 0 01.07.072l.215.313h.236l-.12-.192a.704.704 0 00-.215-.235l-.002-.002zm-.2-.136h-.146v-.247h.156a.515.515 0 01.205.024l-.004-.001a.13.13 0 01-.009.2.537.537 0 01-.164.025l-.039-.001h.002zm2.1.136h.49v-.167h-.49v-.215h.529v-.168h-.729v.985h.747v-.167h-.548v-.267z"/>
    </symbol>
    <symbol id="icon-logo-3" viewBox="0 0 31 32">
      <path d="M4.723 31.104c.023.001.044.01.06.025l.153.161c-.119.13-.266.234-.431.304a1.533 1.533 0 01-.61.109h-.031a1.5 1.5 0 01-.554-.106l.01.004a1.25 1.25 0 01-.709-.725l-.003-.009a1.591 1.591 0 01-.097-.55v-.022-.022c0-.198.038-.387.108-.56l-.004.01a1.32 1.32 0 01.298-.444c.13-.127.287-.225.459-.29.188-.07.389-.104.591-.102a1.47 1.47 0 01.55.093c.151.063.29.149.412.257l-.129.171a.134.134 0 01-.032.031.077.077 0 01-.045.014h-.006a.107.107 0 01-.056-.019l-.068-.045-.096-.059a1.024 1.024 0 00-.296-.101l-.006-.001a1.233 1.233 0 00-.209-.018h-.02.001-.016c-.147 0-.288.028-.417.079l.008-.003a.964.964 0 00-.333.216 1.002 1.002 0 00-.216.342 1.248 1.248 0 00-.079.452c-.002.156.025.313.079.46.046.126.119.242.212.341a.863.863 0 00.318.212c.125.049.259.074.394.073.078.001.156-.004.234-.015a.879.879 0 00.505-.235.115.115 0 01.072-.03zm4.423-.807c.002.194-.033.387-.103.568a1.246 1.246 0 01-.288.44 1.314 1.314 0 01-.444.286l-.009.003a1.695 1.695 0 01-1.176-.004l.012.004a1.331 1.331 0 01-.45-.29 1.3 1.3 0 01-.288-.436l-.003-.009a1.614 1.614 0 01.004-1.147l-.004.011a1.34 1.34 0 01.29-.447A1.32 1.32 0 017.128 29l.009-.003a1.674 1.674 0 011.176.004l-.012-.004a1.29 1.29 0 01.741.729c.071.182.106.376.104.571zm-.402 0v-.024c0-.155-.027-.303-.076-.441l.003.009a.907.907 0 00-.522-.554l-.006-.002a1.219 1.219 0 00-.855.003l.009-.003a.903.903 0 00-.528.55l-.002.006a1.465 1.465 0 000 .912.899.899 0 00.524.552l.006.002c.273.097.573.097.846 0a.903.903 0 00.324-.214.972.972 0 00.205-.341 1.29 1.29 0 00.073-.456zm3.418.478l.041.102c.015-.036.028-.069.044-.102.017-.04.034-.073.052-.105l-.002.005.978-1.694c.019-.03.037-.048.056-.053a.234.234 0 01.066-.009h.015-.001.289v2.755h-.342v-2.111l-.001-.048.001-.05v.002l-.984 1.718a.149.149 0 01-.057.062h-.001a.16.16 0 01-.082.022h-.057a.151.151 0 01-.141-.084v-.001l-1.013-1.73v2.213h-.331v-2.75h.303a.22.22 0 01.068.01h-.002a.107.107 0 01.053.052v.001l.999 1.696c.018.028.035.06.048.094l.001.004zm3.681-.136v1.031h-.383v-2.751h.887c.158 0 .311.022.456.063l-.012-.003a.927.927 0 01.337.171c.085.074.15.167.191.27a.925.925 0 01.066.352.84.84 0 01-.071.352.772.772 0 01-.205.274l-.001.001a.953.953 0 01-.333.181l-.007.002a1.498 1.498 0 01-.461.064l-.463-.007zm0-.296h.464c.1.002.201-.013.296-.042a.627.627 0 00.215-.12l-.001.001c.056-.049.1-.11.129-.178l.001-.003a.565.565 0 00.046-.225v-.008l.001-.028a.506.506 0 00-.041-.199l.001.003a.544.544 0 00-.133-.188.763.763 0 00-.517-.148h.003-.464v1.134zm5.146 1.331h-.308a.134.134 0 01-.079-.026.168.168 0 01-.049-.063v-.001l-.26-.665h-1.307l-.27.665a.152.152 0 01-.047.061.135.135 0 01-.082.028h-.307l1.148-2.756h.398l1.164 2.756zm-1.895-1.023h1.079l-.455-1.122a1.845 1.845 0 01-.083-.245l-.003-.013-.044.144a1.282 1.282 0 01-.045.126l.003-.009-.452 1.119zm3.549-1.72c.023.013.043.03.058.05l1.674 2.076v-2.139h.342v2.756h-.196a.164.164 0 01-.074-.017h.001a.233.233 0 01-.061-.051l-1.674-2.075a.753.753 0 010 .095v2.049h-.342v-2.757h.203c.024 0 .047.004.068.013zm4.896 1.647v1.094h-.383v-1.094l-1.058-1.66H26.448c.028 0 .054.009.075.024a.251.251 0 01.052.061l.001.001.662 1.07a1.363 1.363 0 01.116.244l.05-.118a.93.93 0 01.068-.13l-.002.004.653-1.078a.284.284 0 01.05-.059.117.117 0 01.076-.027h.352l-1.061 1.667zm-15.566-6.284c.167.02.335.037.506.051 2.582-1.101 4.767-2.902 6.281-5.18s2.29-4.93 2.231-7.625l-2.847-2.712c.189.894.297 1.921.297 2.974 0 2.015-.396 3.938-1.115 5.694l.036-.1c-1.09 2.731-2.957 5.12-5.39 6.899z"/>
      <path d="M10.956 24.168l.077.015c2.6-1.773 4.584-4.247 5.692-7.104.627-1.564.991-3.378.991-5.276 0-1.296-.17-2.553-.488-3.748l.023.101-4.054-3.862c1.269 2.397 2.015 5.239 2.015 8.255 0 .701-.04 1.393-.119 2.074l.008-.083c-.397 3.519-1.834 6.857-4.144 9.629zm13.75-9.443c-.688 2.962-2.361 5.632-4.77 7.616a14.98 14.98 0 01-2.191 1.51l-.075.039a13.579 13.579 0 005.285-2.851l-.016.013a12.762 12.762 0 003.381-4.679l.031-.084-1.645-1.565z"/>
      <path d="M24.062 14.289l-2.341-2.23a13.684 13.684 0 01-2.23 7.249l.032-.053a14.67 14.67 0 01-5.73 5.137h.012c.525 0 1.049-.03 1.572-.089a14.47 14.47 0 005.649-3.95l.014-.017a13.402 13.402 0 003.005-5.958l.016-.089zM11.296 2.664L8.503 0C6.006.919 3.859 2.535 2.342 4.636S.009 9.226.001 11.775c.01 2.818 1.005 5.552 2.829 7.77s4.372 3.793 7.242 4.476c2.562-2.973 4.061-6.647 4.281-10.488s-.851-7.648-3.059-10.87zm19.218 11.215c-.01-3.343-1.409-6.547-3.89-8.91s-5.844-3.696-9.352-3.706a13.67 13.67 0 00-4.741.841l17.1 16.291c.559-1.335.884-2.886.884-4.513v-.001z"/>
    </symbol>
    <symbol id="icon-logo-4" viewBox="0 0 60 32">
      <path d="M9.23 9.548h-.002c-1.683 0-3.048 1.331-3.048 2.971v.002c0 1.64 1.365 2.971 3.048 2.971h.002c1.683 0 3.048-1.331 3.048-2.971v-.002c0-1.64-1.365-2.97-3.048-2.97zm22.501-.949a8.506 8.506 0 00-2.59-6.075A8.954 8.954 0 0022.91 0c-2.339.004-4.581.912-6.236 2.523s-2.585 3.797-2.59 6.076v12.566S31.729 19.25 31.731 8.601v-.002zM0 25.29a5.909 5.909 0 001.801 4.226l.002.001a6.219 6.219 0 004.336 1.758 6.215 6.215 0 004.337-1.759l-.002.002a5.905 5.905 0 001.803-4.224v-8.746S-.001 17.883-.001 25.291zm6.14 1.566h-.003c-.331 0-.639-.098-.897-.267l.006.004a1.583 1.583 0 01-.588-.693l-.004-.01a1.511 1.511 0 01-.089-.915l-.002.01a1.56 1.56 0 01.441-.802c.22-.213.5-.365.813-.427l.01-.002c.312-.061.635-.03.929.089s.545.319.722.577a1.546 1.546 0 01.146 1.481l.004-.01c-.08.191-.199.365-.348.511s-.327.262-.522.341a1.61 1.61 0 01-.616.12h-.001v-.006zm12.532-.972h-1.256v1.297h-.655v-3.173h2.067v.53h-1.413v.819h1.255v.528zm3.144-.218c0 .313-.056.586-.166.822s-.269.417-.476.545a1.29 1.29 0 01-.682.192h-.025.001l-.039.001c-.504 0-.939-.296-1.141-.723l-.003-.008c-.109-.23-.173-.5-.173-.785v-.028.001-.158c0-.313.056-.588.168-.825a1.26 1.26 0 01.477-.547c.206-.128.442-.192.707-.192s.499.064.704.192c.206.127.365.309.477.547s.17.511.17.822v.141zm-.663-.143c0-.333-.06-.586-.179-.759a.585.585 0 00-.485-.26l-.027.001h.001-.024a.58.58 0 00-.482.256l-.001.002c-.119.17-.18.42-.182.749v.155c0 .324.06.576.179.755s.291.268.515.268l.026.001c.2 0 .375-.101.479-.255l.001-.002c.118-.173.177-.424.179-.755v-.155zm2.784.826v-.018a.329.329 0 00-.131-.264l-.001-.001c-.087-.067-.244-.137-.47-.21a3.363 3.363 0 01-.558-.227l.019.009c-.36-.195-.541-.457-.541-.787 0-.171.048-.324.144-.458s.236-.24.417-.316c.182-.075.385-.113.61-.113s.429.042.606.124a.947.947 0 01.412.347c.099.15.149.32.149.511h-.655a.422.422 0 00-.137-.338c-.092-.082-.22-.123-.386-.123-.16 0-.284.034-.372.103a.315.315 0 00-.134.259v.008c0 .103.052.189.155.259.105.07.258.135.461.196.372.112.643.251.813.417s.255.372.255.618c0 .275-.104.491-.312.647s-.487.234-.839.234c-.244 0-.467-.045-.667-.133a1.081 1.081 0 01-.458-.365l-.002-.003a.934.934 0 01-.157-.522v-.019.001h.656c0 .35.21.525.628.525a.616.616 0 00.365-.094.312.312 0 00.131-.253v-.014.001zm3.49-1.812h-.972v2.644h-.654v-2.644h-.959v-.53h2.586v.53zm2.285 1.269h-1.256v.85h1.474v.525h-2.128v-3.173h2.124v.53h-1.47v.756h1.256v.513zm1.778.214h-.521v1.162h-.655v-3.173h1.18c.374 0 .664.083.868.251s.305.403.305.709a.992.992 0 01-.141.543.955.955 0 01-.419.341l-.006.002.687 1.297v.03h-.703l-.595-1.162zm-.521-.53h.528c.164 0 .291-.042.381-.124a.45.45 0 00.136-.323l-.001-.025v.001a.474.474 0 00-.129-.353c-.084-.086-.214-.129-.39-.129h-.526v.953zm3.963.573v1.119h-.655v-3.173h1.239c.238 0 .447.043.628.131s.321.211.418.372c.097.16.146.342.146.548 0 .311-.106.557-.32.737-.212.179-.506.268-.883.268h-.573zm0-.529h.584c.173 0 .305-.041.394-.123.092-.081.138-.197.138-.348l.001-.023a.522.522 0 00-.139-.355.519.519 0 00-.38-.149h-.599v.997zm4.138.272h-1.255v.85h1.474v.525h-2.128v-3.173h2.124v.53h-1.469v.756h1.255v.513zm3.035-1.269h-.972v2.644h-.655v-2.644h-.959v-.53h2.585v.53zm2.285 1.269h-1.255v.85h1.474v.525h-2.128v-3.173h2.124v.53h-1.47v.756h1.256v.513zm1.777.214h-.521v1.162h-.654v-3.173h1.18c.375 0 .665.083.868.251s.305.403.305.709a.983.983 0 01-.141.543.95.95 0 01-.419.341l-.006.002.687 1.297v.03h-.703l-.595-1.162zm-.521-.53h.528c.164 0 .29-.042.381-.124a.448.448 0 00.135-.322l-.001-.026v.001a.474.474 0 00-.128-.353c-.085-.086-.214-.129-.391-.129h-.525v.953zm3.844.859l.001-.018a.334.334 0 00-.13-.264l-.001-.001c-.088-.067-.245-.137-.471-.21a3.363 3.363 0 01-.558-.227l.019.009c-.36-.195-.541-.457-.541-.787 0-.171.048-.324.144-.458s.236-.24.417-.316c.181-.075.385-.113.61-.113s.429.042.606.124a.953.953 0 01.412.347c.099.15.149.32.149.511h-.655a.422.422 0 00-.137-.338c-.092-.082-.22-.123-.386-.123-.16 0-.284.034-.372.103a.315.315 0 00-.134.259v.008c0 .103.052.189.155.259.105.07.258.135.46.196.372.112.644.251.813.417s.255.372.255.618c0 .275-.104.491-.312.647s-.487.234-.839.234c-.244 0-.467-.045-.667-.133a1.087 1.087 0 01-.458-.365l-.002-.003a.934.934 0 01-.157-.522v-.019.001h.656c0 .35.208.525.627.525a.616.616 0 00.365-.094.311.311 0 00.13-.253v-.014.001z"/>
    </symbol>
    <symbol id="icon-logo-5" viewBox="0 0 40 32">
      <path d="M3.056 26.746c.157.194.24.438.236.688l.001.053c0 .324-.141.615-.365.815l-.001.001a1.576 1.576 0 01-1.062.317H0v-4.361h1.827a1.548 1.548 0 011.017.294l-.004-.003a.996.996 0 01.353.818v-.003c.011.24-.065.477-.212.667a.99.99 0 01-.556.34c.247.046.471.177.631.373zm-2.188-.659h.78a.733.733 0 00.497-.145.518.518 0 00.169-.383l-.002-.045v.002l.001-.037a.535.535 0 00-.167-.389.75.75 0 00-.514-.147h.003-.767v1.144zm1.354 1.673a.542.542 0 00.186-.408l-.001-.036v.002l.001-.032a.552.552 0 00-.189-.416l-.001-.001a.8.8 0 00-.48-.159l-.054.002h.002-.818v1.199h.829a.816.816 0 00.524-.151zm4.569.86l-1.017-1.704h-.382v1.704h-.874v-4.361h1.655a1.624 1.624 0 011.156.373l-.003-.002a1.391 1.391 0 01.12 1.808l.003-.004a1.337 1.337 0 01-.789.443l1.083 1.743h-.951zm-1.399-2.299h.715c.497 0 .745-.22.745-.66l.001-.037a.651.651 0 00-.184-.454.767.767 0 00-.566-.177h.003-.724l.009 1.328zm6.177 1.421H9.827l-.308.878h-.917l1.6-4.313h.991l1.593 4.312h-.917l-.301-.878zm-.233-.66l-.637-1.841-.637 1.841h1.273zm6.216 1.538h-.869l-1.946-2.965v2.965h-.865v-4.361h.865l1.946 2.982v-2.982h.868v4.361zm4.953-1.044c-.182.33-.45.593-.775.765l-.01.005a2.545 2.545 0 01-1.22.274h-1.546v-4.361H20.5l.067-.001c.42 0 .817.1 1.168.277l-.015-.007c.332.168.606.433.786.761.171.333.272.727.272 1.144s-.1.811-.278 1.158l.007-.014zm-.994-.104c.239-.278.384-.642.384-1.041s-.145-.763-.386-1.043l.002.002a1.5 1.5 0 00-1.091-.371h.004-.603v2.823h.603a1.501 1.501 0 001.088-.372l-.002.001zM12.112 0s11.203 4.246 10.966 10.391v10.393s-11.194-4.249-10.96-10.393L12.113 0zm20.945 18.351a15.153 15.153 0 017.05-2.628l.068-.006v-3.253c-2.995 1.181-5.438 3.227-7.082 5.827l-.035.06z"/>
      <path d="M31.786 19.331c1.749-3.487 4.694-6.159 8.284-7.514l.105-.035V2.408S24.221 8.457 24.559 17.207v14.797s.711-.27 1.83-.778c0-.473 0-.95.05-1.43a15.39 15.39 0 015.327-10.448l.021-.017z"/>
      <path d="M30.269 24.828a15.3 15.3 0 01.558-3.03 14.246 14.246 0 00-3.378 8.922v.016a43.692 43.692 0 003.286-1.742l-.218.118c-.191-.908-.3-1.952-.3-3.021 0-.445.019-.885.056-1.32l-.004.057zm.634.053a14.803 14.803 0 00.212 3.972l-.015-.092c4.359-2.619 9.257-6.665 9.068-11.554v-.426a14.27 14.27 0 00-8.298 3.895l.005-.005a14.243 14.243 0 00-.968 4.158l-.003.052z"/>
    </symbol>
    <symbol id="icon-logo-6" viewBox="0 0 62 32">
      <path d="M31.127 14.857a2.248 2.248 0 01-.396-1.437v.007-2.075c0-.637.132-1.12.394-1.451s.715-.495 1.356-.494c.602 0 1.03.141 1.282.422.276.359.41.798.379 1.241v.487h-1.077v-.494l.001-.064c0-.148-.012-.293-.034-.435l.002.016a.482.482 0 00-.153-.287.575.575 0 00-.345-.113l-.048.002h.002a.614.614 0 00-.412.119l.002-.001a.568.568 0 00-.178.313l-.001.004a2.594 2.594 0 00-.042.513v2.519a1.425 1.425 0 00.142.715l-.004-.008a.526.526 0 00.212.171l.003.001a.544.544 0 00.28.04h-.003a.545.545 0 00.382-.115l-.001.001a.522.522 0 00.16-.303v-.003c.026-.167.037-.336.034-.504v-.511h1.077v.466a2.015 2.015 0 01-.377 1.311l.004-.006c-.247.308-.669.462-1.288.462s-1.088-.164-1.354-.506zm4.484.021c-.272-.323-.408-.794-.408-1.417v-2.183c0-.616.136-1.083.408-1.399s.726-.474 1.364-.473c.633 0 1.085.158 1.358.473.271.317.41.783.41 1.399v2.183c0 .616-.139 1.089-.415 1.414-.277.325-.727.487-1.354.487s-1.09-.164-1.364-.485zm1.866-.524c.097-.202.142-.424.129-.646v-2.672l.002-.072a1.28 1.28 0 00-.133-.569l.003.007a.528.528 0 00-.216-.173l-.003-.001a.533.533 0 00-.287-.037h.003a.546.546 0 00-.289.039l.004-.001a.536.536 0 00-.22.172l-.001.001a1.242 1.242 0 00-.129.633v2.685a1.29 1.29 0 00.129.646.672.672 0 00.222.158l.004.002a.692.692 0 00.558-.002l-.005.002a.672.672 0 00.226-.16v-.013zm2.562-4.884h1.16l.872 4.028.892-4.028h1.128l.113 5.813h-.833l-.089-4.04-.861 4.04h-.669l-.892-4.055-.083 4.055h-.843l.104-5.813zm5.465 0h1.806c1.04 0 1.56.55 1.56 1.651 0 1.054-.548 1.58-1.643 1.579h-.614v2.583h-1.115l.007-5.813zm1.544 2.484c.11.014.222.004.327-.028a.78.78 0 00.286-.155 1.01 1.01 0 00.16-.657l.001-.067c0-.163-.02-.322-.057-.474l.003.014a.425.425 0 00-.083-.161l.001.001a.484.484 0 00-.139-.116l-.002-.001a1.055 1.055 0 00-.499-.092h.003-.433v1.737h.433zm3.431-2.484h1.197l1.229 5.813h-1.039l-.243-1.341h-1.068l-.25 1.341H49.25l1.229-5.813zm1.023 3.8l-.417-2.441-.417 2.441h.835zm2.396-3.8h.779l1.494 3.316V9.47h.925v5.813h-.742l-1.503-3.462v3.462h-.957l.002-5.813zm5.366 3.597l-1.242-3.589h1.046l.758 2.305.711-2.305h1.023l-1.226 3.589v2.217h-1.071v-2.217zm-26.415 4.758v.304h-.91v2.362h-.381v-2.362h-.914v-.304h2.205zm2.851 2.666h-.302a.124.124 0 01-.075-.026.134.134 0 01-.048-.06v-.001l-.263-.633H33.75l-.264.633a.181.181 0 01-.04.072.124.124 0 01-.076.025h-.301l1.115-2.666h.388l1.128 2.656zm-1.846-.99h1.053l-.446-1.085a1.908 1.908 0 01-.08-.236l-.003-.014-.042.141-.04.111-.442 1.083zm3.769.728c.07.003.139.003.209 0 .061-.006.12-.017.179-.032a1.3 1.3 0 00.169-.052l-.009.003c.049-.019.099-.042.15-.065v-.6h-.451a.082.082 0 01-.055-.021.057.057 0 01-.022-.046v-.208h.865v1.022a1.61 1.61 0 01-.459.214l-.012.003a1.747 1.747 0 01-.269.055l-.009.001a2.896 2.896 0 01-.321.017h-.018c-.197 0-.386-.037-.56-.103l.011.004a1.34 1.34 0 01-.446-.279l.001.001a1.293 1.293 0 01-.285-.414l-.003-.008a1.426 1.426 0 01-.103-.536v-.018-.016c0-.195.037-.381.105-.551l-.004.01c.064-.158.161-.301.287-.422.127-.12.279-.214.446-.277a1.71 1.71 0 01.598-.099c.104 0 .207.007.31.023.09.014.179.036.266.067a1.2 1.2 0 01.223.106c.069.042.134.088.195.139l-.108.165a.103.103 0 01-.036.036.098.098 0 01-.051.014.137.137 0 01-.07-.021h.001a1.281 1.281 0 01-.114-.066l.005.003a.905.905 0 00-.143-.07l-.007-.002a1.21 1.21 0 00-.197-.058l-.008-.001a1.495 1.495 0 00-.268-.023h-.016.001-.013c-.15 0-.293.027-.425.077l.008-.003a.912.912 0 00-.328.211.924.924 0 00-.207.332 1.338 1.338 0 00.003.898l-.003-.009c.049.125.125.24.223.335a.952.952 0 00.326.212c.142.046.292.064.442.053zm3.553-.042h1.218v.304h-1.59v-2.666h.381l-.009 2.362zm2.484.303h-.381v-2.665h.381v2.666zm1.419-2.653a.192.192 0 01.057.048l1.63 2.01-.002-.048.002-.05v.002-1.986h.332v2.676h-.191l-.013.001a.171.171 0 01-.071-.016h.001a.266.266 0 01-.06-.05l-1.628-2.007v2.073h-.319v-2.665h.198c.022 0 .043.004.063.013zm4.827-.012v.294h-1.351v.88h1.095v.282h-1.095v.91h1.351v.294h-1.743v-2.66h1.743zM9.951 1.36l16.93 4.551v15.947L9.952 17.31V1.36zM8.866.001v18.083l19.1 5.136V5.138L8.866.001z"/>
      <path d="M19.102 31.615L0 26.475V8.393l19.102 5.138v18.084z"/>
      <path d="M9.182 1.156L25.891 5.65l-7.106 6.729L2.074 7.883l7.108-6.728zM8.866.001L0 8.394l19.102 5.138 8.863-8.393L8.865.001zm11.311 30.597l7.789-7.375-7.789-2.096v9.471z"/>
    </symbol>
    <symbol id="icon-smartphone" viewBox="0 0 20 32">
      <path d="M17.007 0H3.002A3.004 3.004 0 00.001 3.001V29.01a3.004 3.004 0 003.001 3.001h14.005a3.004 3.004 0 003.001-3.001V3.001A3.004 3.004 0 0017.007 0zM3.002 2.001h14.005a1 1 0 011 1v21.007H2.002V3.001a1 1 0 011-1zM17.007 30.01H3.002a1 1 0 01-1-1v-3.001h16.005v3.001a1 1 0 01-1 1z"/>
      <path d="M4.711 27.487a.89.89 0 01.001 1.32l-.001.001a1.048 1.048 0 01-1.417 0l.001.001a.89.89 0 01-.001-1.32l.001-.001a1.048 1.048 0 011.417 0l-.001-.001z"/>
    </symbol>
    <symbol id="icon-twitter-1" viewBox="0 0 32 32">
      <path d="M32.015 6.081A13.285 13.285 0 0128.3 7.11l-.068.007a6.56 6.56 0 002.875-3.581l.013-.046a12.879 12.879 0 01-4.078 1.574l-.084.014a6.562 6.562 0 00-11.352 4.485v.004c0 .52.043 1.021.152 1.497C10.301 10.798 5.473 8.183 2.23 4.2a6.541 6.541 0 00-.903 3.314v.001a6.575 6.575 0 002.915 5.454 6.45 6.45 0 01-2.996-.824l.033.017v.072a6.595 6.595 0 005.215 6.443l.043.008a6.41 6.41 0 01-1.663.215h-.061.003c-.419 0-.844-.024-1.242-.112.85 2.6 3.262 4.511 6.133 4.572a13.1 13.1 0 01-8.126 2.801h-.013.001-.062c-.532 0-1.055-.034-1.569-.099l.061.006c2.828 1.847 6.29 2.945 10.009 2.945h.063-.003c12.078 0 18.681-10.005 18.681-18.678 0-.288-.01-.57-.024-.848a13.215 13.215 0 003.26-3.356l.03-.047z"/>
    </symbol>
    <symbol id="icon-x-1" viewBox="0 0 32 32">
      <path d="M32 3.223L28.777 0 16 12.777 3.223 0 0 3.223 12.777 16 0 28.777 3.223 32 16 19.223 28.777 32 32 28.777 19.223 16 32 3.223z"/>
    </symbol>
    <symbol id="border-checkbox" fill="none" xmlns="http://www.w3.org/2000/svg">
      <path d="M14.222 1.667v11.666H1.778V1.667h12.444zm0-1.667H1.778C.8 0 0 .75 0 1.667v11.666C0 14.25.8 15 1.778 15h12.444C15.2 15 16 14.25 16 13.333V1.667C16 .75 15.2 0 14.222 0z" fill="#212121"/>
    </symbol>
  </defs>
</svg>